<svg xmlns="http://www.w3.org/2000/svg" width="52" height="50" viewBox="0 0 52 50"><g><g><path fill="#ffc000" d="M51.673 8.79a1.024 1.024 0 0 1-1.436 0 .99.99 0 0 1 0-1.416c.396-.39 1.04-.39 1.436 0a.99.99 0 0 1 0 1.416zm-2.872-5.667a1.026 1.026 0 0 1-1.437 0 .993.993 0 0 1 0-1.416c.397-.39 1.04-.39 1.437 0a.992.992 0 0 1 0 1.416zm-7.182-1.416a1.026 1.026 0 0 1-1.437 0 .993.993 0 0 1 0-1.416c.397-.391 1.04-.391 1.437 0a.993.993 0 0 1 0 1.416zM6.061 45.41c-.397.39-1.04.39-1.437 0a.994.994 0 0 1 0-1.417c.397-.39 1.04-.39 1.437 0a.994.994 0 0 1 0 1.417zm8.275-8.295l-5.394 5.452a1.019 1.019 0 0 1-.727.303c-.256 0-.512-.095-.709-.285a.992.992 0 0 1-.018-1.417l5.395-5.452a1.026 1.026 0 0 1 1.436-.017.992.992 0 0 1 .017 1.416zm33.028-12.74l-11.49 11.333-1.438 1.416a5.079 5.079 0 0 1-3.59 1.468 5.08 5.08 0 0 1-3.59-1.468l-2.874-2.833a1.027 1.027 0 0 0-1.436 0l-1.412 1.393-10.883 12.262-.001.002A6.096 6.096 0 0 1 6.06 50c-1.63 0-3.16-.623-4.31-1.757a5.959 5.959 0 0 1 .292-8.769l.001-.001 12.304-10.868 1.417-1.397a.988.988 0 0 0 0-1.416l-2.874-2.834a4.967 4.967 0 0 1 0-7.083l1.438-1.418 11.49-11.331a1.023 1.023 0 0 1 1.436 0l3.584 3.534.014.015 4.295 4.235.015.015 4.293 4.235.015.014 4.294 4.235.016.016 3.583 3.533a.992.992 0 0 1 0 1.417zm-27.962 10.67l-4.394-4.334L3.4 40.964a.02.02 0 0 1-.003.003 3.972 3.972 0 0 0-.208 5.858 4.064 4.064 0 0 0 2.873 1.171 4.064 4.064 0 0 0 3.062-1.37zm14.317-.046L15.046 16.582l-.719.708a2.98 2.98 0 0 0 0 4.25l2.874 2.834c.575.568.892 1.322.892 2.125 0 .802-.317 1.557-.892 2.125l-.718.708 4.31 4.25.717-.708a3.08 3.08 0 0 1 4.309 0l2.873 2.832c.576.568 1.34.881 2.154.881.814 0 1.579-.313 2.154-.88zm11.49-11.332l-2.154-2.125-5.027 4.958a1.02 1.02 0 0 1-.718.293c-.26 0-.52-.098-.718-.293a.992.992 0 0 1 0-1.417l5.027-4.957-2.873-2.834-5.028 4.958a1.022 1.022 0 0 1-1.436 0 .992.992 0 0 1 0-1.417l5.027-4.958-2.872-2.832-5.027 4.957a1.02 1.02 0 0 1-.718.294c-.26 0-.52-.098-.718-.294a.992.992 0 0 1 0-1.416L33 11.624l-2.873-2.834L25.1 13.75a1.018 1.018 0 0 1-.718.293c-.26 0-.52-.097-.719-.293a.992.992 0 0 1 0-1.417l5.027-4.957-2.154-2.125-10.054 9.915 18.673 18.417zM38.746 4.54l-2.872 2.833a1.018 1.018 0 0 1-.718.293c-.26 0-.52-.097-.719-.293a.992.992 0 0 1 0-1.417l2.873-2.832a1.025 1.025 0 0 1 1.436 0 .992.992 0 0 1 0 1.416zM33 1.707l-1.436 1.417a1.022 1.022 0 0 1-1.436 0 .993.993 0 0 1 0-1.417L31.564.29A1.026 1.026 0 0 1 33 .29a.992.992 0 0 1 0 1.416zm12.928 4.25l-5.746 5.667a1.02 1.02 0 0 1-.718.294c-.26 0-.52-.098-.718-.294a.992.992 0 0 1 0-1.416L44.49 4.54a1.026 1.026 0 0 1 1.437 0 .992.992 0 0 1 0 1.417zm2.873 5.667l-4.31 4.25a1.018 1.018 0 0 1-.718.293c-.26 0-.52-.098-.718-.293a.992.992 0 0 1 0-1.417l4.31-4.25a1.026 1.026 0 0 1 1.436 0 .992.992 0 0 1 0 1.417zm1.436 7.084l-1.436 1.416a1.02 1.02 0 0 1-.718.293c-.26 0-.52-.098-.718-.293a.993.993 0 0 1 0-1.417L48.8 17.29a1.026 1.026 0 0 1 1.436 0 .993.993 0 0 1 0 1.417z"/></g></g></svg>