<svg xmlns="http://www.w3.org/2000/svg" width="50" height="50" viewBox="0 0 50 50"><g><g><path fill="#ffc000" d="M45.588 42.792a2.597 2.597 0 0 1-2.602 2.585 2.597 2.597 0 0 1-2.603-2.585 2.597 2.597 0 0 1 2.603-2.585 2.597 2.597 0 0 1 2.602 2.585zm-1.542 0c0-.58-.476-1.053-1.06-1.053-.585 0-1.06.472-1.06 1.053 0 .58.475 1.053 1.06 1.053.584 0 1.06-.472 1.06-1.053zm3.937 4.878a6.845 6.845 0 0 1-5.02 2.001 6.845 6.845 0 0 1-4.927-2.222L26.448 34.86a.763.763 0 0 1 .049-1.083.775.775 0 0 1 1.09.049l11.587 12.59a5.31 5.31 0 0 0 3.823 1.723 5.322 5.322 0 0 0 3.896-1.553 5.24 5.24 0 0 0 1.562-3.888 5.244 5.244 0 0 0-1.762-3.804L31.108 24.928l-.922.917.758.753c.536.533.832 1.24.832 1.994s-.296 1.462-.832 1.995l-1.781 1.77a.775.775 0 0 1-.825.172 4.194 4.194 0 0 0-4.46.932 4.128 4.128 0 0 0-.938 4.432.762.762 0 0 1-.174.818l-9.442 9.381A6.535 6.535 0 0 1 8.688 50a6.535 6.535 0 0 1-4.636-1.908 6.49 6.49 0 0 1 0-9.211l9.443-9.38a.775.775 0 0 1 .824-.173 4.193 4.193 0 0 0 4.461-.932c.312-.31.565-.663.76-1.04l-4.052-4.403c-4.21 1.351-8.877.251-12.022-2.872A11.726 11.726 0 0 1 .786 7.543a.775.775 0 0 1 1.265-.267l6.054 6.015c.18.178.418.276.671.276a.945.945 0 0 0 .67-.276l3.932-3.906a.934.934 0 0 0 0-1.333L7.324 2.038A.763.763 0 0 1 7.594.78C11.956-.883 16.91.163 20.212 3.443a11.702 11.702 0 0 1 2.813 12.18l5.242 4.697 4.816-4.785a.775.775 0 0 1 1.09 0c.302.3.302.785 0 1.084l-6.637 6.594 1.558 1.548L44.302 9.654l-1.559-1.548-5.946 5.907c-.301.3-.79.3-1.09 0a.762.762 0 0 1 0-1.083l6.48-6.438c.026-.09.062-.18.107-.266l1.57-2.953a1.433 1.433 0 0 1 1.063-.75c.46-.07.911.078 1.24.404l3.347 3.326c.329.326.477.775.408 1.231-.07.457-.345.842-.756 1.057l-2.973 1.56a1.469 1.469 0 0 1-.265.104L32.2 23.843l15.526 13.913a6.76 6.76 0 0 1 2.271 4.902 6.755 6.755 0 0 1-2.014 5.012zM45.535 8.713l2.797-1.467-3.165-3.145-1.476 2.78zM19.997 25.58a4.115 4.115 0 0 0-.28-1.616.763.763 0 0 1 .174-.82l1.781-1.769a2.831 2.831 0 0 1 2.008-.826c.759 0 1.472.294 2.008.826l.758.753.73-.724-5.572-4.993a.762.762 0 0 1-.2-.852 10.178 10.178 0 0 0-2.282-11.033 10.36 10.36 0 0 0-9.811-2.683l5.158 5.125c.47.467.73 1.089.73 1.75a2.45 2.45 0 0 1-.73 1.75l-3.932 3.905a2.482 2.482 0 0 1-1.761.725c-.665 0-1.29-.257-1.761-.725L1.856 9.25a10.202 10.202 0 0 0 2.7 9.747c2.844 2.825 7.118 3.746 10.889 2.35a.775.775 0 0 1 .838.2zm9.856 2.1l-1.303-1.295-2.65-2.631-1.303-1.295a1.304 1.304 0 0 0-1.834 0l-1.443 1.433a5.654 5.654 0 0 1-1.45 5.587 5.742 5.742 0 0 1-5.622 1.44l-9.105 9.044a4.963 4.963 0 0 0 0 7.044 4.997 4.997 0 0 0 3.546 1.46 4.997 4.997 0 0 0 3.545-1.46l9.104-9.044a5.654 5.654 0 0 1 1.449-5.587 5.743 5.743 0 0 1 5.623-1.44l1.443-1.433a1.284 1.284 0 0 0 0-1.823zm-14.06 7.216l-7.306 7.258a.773.773 0 0 1-1.09 0 .763.763 0 0 1 0-1.084l7.304-7.258c.302-.299.79-.299 1.091 0a.763.763 0 0 1 0 1.084zm2.698 2.681l-7.305 7.258a.771.771 0 0 1-1.09 0 .762.762 0 0 1 0-1.084l7.305-7.257a.775.775 0 0 1 1.09 0c.301.299.301.784 0 1.083z"/></g></g></svg>