<svg xmlns="http://www.w3.org/2000/svg" width="19" height="20" viewBox="0 0 19 20"><g><g><path fill="#252c30" d="M18.675 19.705a1.023 1.023 0 0 1-1.465-.028l-4.718-4.989a7.77 7.77 0 0 1-4.55 1.461c-4.38 0-7.944-3.622-7.944-8.074C-.002 3.622 3.561 0 7.941 0c4.38 0 7.944 3.622 7.944 8.075a8.13 8.13 0 0 1-1.864 5.19l4.682 4.951a1.067 1.067 0 0 1-.028 1.49zM2.07 8.075c0 3.29 2.634 5.968 5.871 5.968 3.238 0 5.871-2.677 5.871-5.968s-2.633-5.969-5.87-5.969c-3.238 0-5.872 2.678-5.872 5.969z"/></g></g></svg>