<svg xmlns="http://www.w3.org/2000/svg" width="49" height="49" viewBox="0 0 49 49"><g><g><path fill="#ffc000" d="M43.8 35.278v7.885a.72.72 0 0 1-.718.722h-7.86a.724.724 0 0 1-.509-1.232l7.86-7.885a.717.717 0 0 1 .784-.156.722.722 0 0 1 .444.666zm-1.438 7.164V37.02l-5.404 5.422zM49 23.714v24.564a.72.72 0 0 1-.72.722H23.796a.723.723 0 0 1-.509-1.231l4.14-4.153H5.447a5.408 5.408 0 0 1-3.802-1.552 5.444 5.444 0 0 1-1.629-3.498A.726.726 0 0 1 0 38.41V7.765C0 4.635 2.538 2.09 5.657 2.09a.72.72 0 0 1 .719.722V9.95H28.7l5.006-5.022 2.336-2.344 1.934-1.94A2.175 2.175 0 0 1 39.526 0c.587 0 1.137.228 1.552.644l2.235 2.242c.414.416.642.968.642 1.556a2.19 2.19 0 0 1-.642 1.555l-1.933 1.94h-.001L39.373 9.95h5.526a.72.72 0 0 1 .72.721v14.693l2.153-2.161a.717.717 0 0 1 1.228.51zM37.568 3.094l3.303 3.313 1.425-1.43a.76.76 0 0 0 0-1.07L40.06 1.664a.754.754 0 0 0-1.067 0zm-2.336 2.344l3.302 3.313 1.32-1.324-3.303-3.312zm12.33 20.017L34.909 38.148a.716.716 0 0 1-1.017 0 .723.723 0 0 1 0-1.02l10.288-10.32V11.392h-6.245l-14.8 14.847a.717.717 0 0 1-.059.053l-.012.009a.705.705 0 0 1-.05.036l-.017.01a.653.653 0 0 1-.05.028l-.02.009a.734.734 0 0 1-.05.021l-.011.004-4.387 1.554h14.29a.72.72 0 0 1 .72.721.72.72 0 0 1-.72.722H12.852a.72.72 0 0 1-.72-.722.72.72 0 0 1 .72-.721h2.392a.757.757 0 0 1 .028-.11l.956-2.715 1.4-3.982.007-.015a.908.908 0 0 1 .018-.043l.013-.028a.775.775 0 0 1 .022-.04l.015-.026a.72.72 0 0 1 .03-.041l.015-.02a.799.799 0 0 1 .05-.057l3.368-3.378a.718.718 0 0 1 1.017 0c.28.282.28.738 0 1.02l-2.859 2.868 3.302 3.313L37.128 10.16l.388-.39-3.302-3.312-4.707 4.722-5.204 5.221a.718.718 0 0 1-1.017 0 .723.723 0 0 1 0-1.02l3.976-3.989H6.376V25.34a.72.72 0 0 1-.72.721.72.72 0 0 1-.719-.721V3.595a4.236 4.236 0 0 0-3.499 4.17v26.868a5.614 5.614 0 0 1 3.499-1.852v-4.555a.72.72 0 0 1 .72-.722.72.72 0 0 1 .719.722v5.231a.72.72 0 0 1-.72.722c-.07 0-.142.002-.212.005-.017 0-.034.003-.051.004a4.017 4.017 0 0 0-.161.012l-.047.006-.165.02-.03.006c-.06.01-.12.02-.18.033l-.011.002a4.237 4.237 0 0 0-2.943 2.309l-.003.007a4.345 4.345 0 0 0-.078.17l-.016.041c-.02.046-.038.093-.055.14l-.027.075a3.686 3.686 0 0 0-.07.217l-.02.076a3.982 3.982 0 0 0-.08.356l-.004.022c-.011.063-.021.127-.03.19v.002c-.017.135-.027.27-.031.408a3.993 3.993 0 0 0 4.006 3.893h23.415l2.915-2.924a.717.717 0 0 1 1.017 0c.281.282.281.738 0 1.02l-7.264 7.288h22.03v-3.441h-1.326a.72.72 0 0 1 0-1.443h1.327v-2.175h-1.327a.72.72 0 1 1 0-1.443h1.327v-2.174h-1.327a.72.72 0 0 1-.72-.721.72.72 0 0 1 .72-.722h1.327v-2.174h-1.327a.72.72 0 0 1 0-1.443h1.327zm-28.957-2.738l-.727 2.066 1.373 1.377 2.06-.73z"/></g></g></svg>