<svg xmlns="http://www.w3.org/2000/svg" width="62" height="42" viewBox="0 0 62 42"><g><g><path fill="#ffc000" d="M61.998 5.98v9.209c-.013 2.95-2.433 5.325-5.425 5.312h-3.35v12.146c2.26.315 4.122 2.282 4.122 4.656-.014 2.61-2.168 4.71-4.8 4.696H39.409c-2.646 0-4.787-2.112-4.787-4.722 0-2.61 2.14-4.722 4.787-4.722h1.449v-6.427h-2.952c-1.502 0-2.765-1.18-2.765-2.65v-2.99h-2.26a1.92 1.92 0 0 1-.386-.04l-9.16-2.702c-.56-.17-.958-.682-.958-1.259v-.065h-7.472c-.2 0-.386-.04-.572-.119l-.519-.236-5.185-2.479a1.326 1.326 0 0 1-.744-1.18v-.302H1.33c-.732 0-1.33-.59-1.33-1.311 0-.722.598-1.312 1.33-1.312h6.568v-1.35c0-.513.292-.958.744-1.181l5.704-2.729c.173-.078.373-.118.572-.118h7.645c.146-.276.399-.485.691-.603L32.415.079c.16-.053.32-.08.492-.08L56.68.578c2.978.065 5.345 2.465 5.318 5.404zM13.07 7.752l-2.526 1.207v2.637L13.07 12.8zm9.307-1.022h-6.648v7.082h6.648zm9.174-3.53l-6.515 2.427v9.904l6.515 1.94zm9.307 20.318v-3.016H37.8v2.99c0 .026.08.026.106.026zm11.687 11.674H51.8a1.253 1.253 0 0 1-1.236-1.272V20.501h-7.047v13.444a1.298 1.298 0 0 1-1.343 1.246H39.41c-.559 0-1.09.237-1.49.63l-.013.026a2.062 2.062 0 0 0-.625 1.47v.012a2.095 2.095 0 0 0 2.128 2.06h13.136a2.082 2.082 0 0 0 1.502-.604c.4-.393.625-.918.625-1.469a2.133 2.133 0 0 0-2.127-2.125zm6.794-29.21c0-1.496-1.21-2.729-2.726-2.781L34.21 2.649v15.228h22.417c1.515-.026 2.725-1.246 2.712-2.74zm-3.457 1.364v6.427c0 .721-.598 1.312-1.33 1.312-.73 0-1.33-.59-1.33-1.312V7.345c0-.722.6-1.312 1.33-1.312.732 0 1.33.59 1.33 1.312zm-4.255 0v6.427c0 .721-.598 1.312-1.33 1.312-.73 0-1.329-.59-1.329-1.312V7.345c0-.722.599-1.312 1.33-1.312.731 0 1.33.59 1.33 1.312zm-4.121 0v6.427c0 .721-.598 1.312-1.33 1.312-.731 0-1.33-.59-1.33-1.312V7.345c0-.722.599-1.312 1.33-1.312.731 0 1.33.59 1.33 1.312z"/></g></g></svg>