<svg xmlns="http://www.w3.org/2000/svg" width="65" height="51" viewBox="0 0 65 51"><g><g><path fill="#ffc000" d="M5.98 46.024c0 .52-.426.943-.952.943a.952.952 0 0 1-.957-.943c0-.521.42-.944.947-.944h.01c.526 0 .952.423.952.944zm32.57 0c0 .52-.426.943-.951.943a.952.952 0 0 1-.958-.943c0-.521.422-.944.947-.944h.01c.526 0 .953.423.953.944zm-8.151 0c0 .52-.426.943-.952.943H13.164a.948.948 0 0 1-.952-.943c0-.521.426-.944.952-.944h16.283c.526 0 .952.423.952.944zM16.152 30.9a.948.948 0 0 1-.952.943H9.093a.948.948 0 0 1-.952-.943c0-.52.427-.943.952-.943H15.2c.525 0 .952.422.952.943zM65 39.47c0 3.022-2.482 5.48-5.532 5.48h-7.685a.948.948 0 0 1-.952-.943c0-.52.426-.943.952-.943h1.401l2.836-8.43a.951.951 0 0 1 .893-.644L49.246 11.7l-.605.29a.956.956 0 0 1-1.272-.435.94.94 0 0 1 .44-1.261l3.398-1.635c.485-.235.708-.807.506-1.302a1.033 1.033 0 0 0-1.343-.564l-18.595 7.449a1.52 1.52 0 0 0-.886.962l-1.733 5.68h3.848l.86-3.5a.946.946 0 0 1 .51-.625l9.85-4.74a.956.956 0 0 1 1.273.436.94.94 0 0 1-.44 1.26l-9.448 4.547-.971 3.983 2.716 8.968c.112.37.169.754.169 1.14v4.597a1.963 1.963 0 0 1-1.97 1.952h-3.119v2.146h5.159c2.77 0 5.023 2.232 5.023 4.976 0 2.743-2.253 4.976-5.023 4.976h-.003H5.023C2.253 51 0 48.767 0 46.024c0-2.744 2.253-4.977 5.023-4.976h5.154v-2.146H7.058c-1.647 0-2.987-1.328-2.987-2.96v-7.057c0-1.632 1.34-2.96 2.987-2.96h18.384v-3.09a1.96 1.96 0 0 1 1.72-1.934l1.904-6.243a3.408 3.408 0 0 1 1.99-2.163l17.478-7.003.263-3.24A1.952 1.952 0 0 1 50.138.558l1.391-.46a1.995 1.995 0 0 1 1.555.133c.475.253.83.694.97 1.21l9.322 34.155A5.437 5.437 0 0 1 65 39.47zM8.14 46.024c0-1.704-1.399-3.09-3.118-3.09-1.72 0-3.119 1.386-3.119 3.09 0 1.703 1.4 3.09 3.119 3.09 1.72 0 3.118-1.387 3.118-3.09zm26.334 0c0 1.703 1.399 3.09 3.118 3.09 1.72 0 3.119-1.387 3.119-3.09 0-1.704-1.399-3.09-3.119-3.09-1.72 0-3.118 1.386-3.118 3.09zm-25.52-3.09a4.922 4.922 0 0 1 0 6.18H33.66a4.923 4.923 0 0 1 0-6.18zm26.664-8.065H30.29a2.981 2.981 0 0 1-2.112-.867l-1.861-1.844a2.926 2.926 0 0 1-.875-2.092V27.81H7.058a1.08 1.08 0 0 0-1.083 1.074v7.057a1.08 1.08 0 0 0 1.083 1.073h6.106c.526 0 .952.422.952.943 0 .521-.426.943-.952.943h-1.083v2.146h18.45v-2.146H17.234a.948.948 0 0 1-.952-.943c0-.52.426-.943.952-.943h18.318a.065.065 0 0 0 .065-.065zM32.76 22.77h-5.348a.065.065 0 0 0-.066.065v7.23c0 .288.113.557.317.76l1.861 1.843c.205.203.477.314.766.314h5.329v-.629c0-.203-.03-.404-.09-.598l-2.706-8.939a.066.066 0 0 0-.063-.046zm26.165 11.22h.543c.54 0 1.063.078 1.558.222l-8.81-32.28c-.002-.008-.008-.027-.033-.04a.062.062 0 0 0-.051-.004l-1.392.46a.064.064 0 0 0-.044.056l-.198 2.437a2.95 2.95 0 0 1 1.405.22 2.904 2.904 0 0 1 1.575 1.588c.576 1.41-.055 3.037-1.437 3.706l-1.068.514zm4.17 5.48c0-1.981-1.627-3.594-3.627-3.594H57.61l-2.418 7.188h4.276c2 0 3.628-1.612 3.628-3.594z"/></g></g></svg>