<svg xmlns="http://www.w3.org/2000/svg" width="19" height="14" viewBox="0 0 19 14"><g><g><path fill="#ffc000" d="M19 2.253v9.497C19 12.99 17.958 14 16.676 14H2.323C1.042 14 0 12.99 0 11.75v-9.5C0 1.007 1.042 0 2.323 0H16.68c1.282 0 2.324 1.012 2.32 2.253zm-1.062 9.497V2.253c0-.674-.566-1.222-1.262-1.222H2.323c-.696 0-1.262.548-1.262 1.222v9.497c0 .674.566 1.222 1.262 1.222H16.68c.696 0 1.262-.548 1.262-1.222zm-1.29-.578c.213.194.221.52.02.726a.538.538 0 0 1-.385.16.54.54 0 0 1-.365-.14L11.192 7.57 9.867 8.72a.538.538 0 0 1-.707.003L7.87 7.609l-4.753 4.305a.54.54 0 0 1-.361.137.552.552 0 0 1-.39-.164.505.505 0 0 1 .024-.727l4.682-4.244-4.702-4.07a.502.502 0 0 1-.043-.726.542.542 0 0 1 .751-.042l5.087 4.408a.735.735 0 0 1 .087.072c0 .004.004.008.008.012l1.25 1.08 6.408-5.568a.546.546 0 0 1 .75.038.505.505 0 0 1-.039.727l-4.647 4.035z"/></g></g></svg>