<svg xmlns="http://www.w3.org/2000/svg" width="77" height="77" viewBox="0 0 77 77"><g><g><path fill="#2d3e50" d="M38.5 0C59.763 0 77 17.237 77 38.5S59.763 77 38.5 77 0 59.763 0 38.5 17.237 0 38.5 0z"/></g><g><path fill="#fff" d="M23.26 25.37L37.832 25c.106 0 .204.016.302.05l5.614 2.2c.18.077.334.212.424.389h4.686c.122 0 .244.025.35.076l3.496 1.754c.277.143.456.43.456.758v.869h4.026c.448 0 .815.38.815.843 0 .464-.367.843-.815.843h-4.017v.194c0 .32-.18.616-.457.76l-3.178 1.593-.318.152a.849.849 0 0 1-.35.076h-4.58v.042c0 .37-.244.7-.587.81l-5.614 1.736a1.12 1.12 0 0 1-.237.025h-1.385v1.923c0 .944-.774 1.703-1.695 1.703h-1.81v4.132h.89c1.62 0 2.933 1.358 2.933 3.036s-1.312 3.035-2.934 3.035h-8.051c-1.614.009-2.934-1.34-2.942-3.018 0-1.526 1.141-2.791 2.526-2.994v-7.808h-2.053c-1.834.008-3.317-1.518-3.325-3.415v-5.92c-.016-1.888 1.434-3.431 3.26-3.474zm26.73 7.86l1.548-.777v-1.695l-1.549-.775zm-5.705.648h4.075v-4.553h-4.075zm-5.623 2.353l3.993-1.248v-6.366l-3.993-1.56zm-3.895 3.887c.016 0 .065 0 .065-.017V38.18h-1.874v1.939zm-10.276 8.87c0 .355.139.692.383.945.245.253.579.396.921.388h8.051c.717.008 1.296-.59 1.304-1.323v-.01c0-.353-.139-.69-.383-.943l-.008-.017a1.277 1.277 0 0 0-.913-.405h-1.695c-.44.017-.807-.346-.823-.801V38.179H27.01v8.626c.008.438-.326.81-.758.818H25.795c-.725.008-1.304.616-1.304 1.366zm-2.86-14.258c-.008.962.733 1.746 1.662 1.763h13.74v-9.79l-13.732.354c-.929.034-1.67.826-1.67 1.787zm2.933-5.852c.449 0 .815.38.815.844v4.131c0 .464-.366.843-.815.843-.448 0-.814-.38-.814-.843v-4.131c0-.464.366-.844.814-.844zm2.608 0c.448 0 .815.38.815.844v4.131c0 .464-.367.843-.815.843-.448 0-.815-.38-.815-.843v-4.131c0-.464.367-.844.815-.844zm2.526 0c.449 0 .815.38.815.844v4.131c0 .464-.366.843-.815.843-.448 0-.815-.38-.815-.843v-4.131c0-.464.367-.844.815-.844z"/></g></g></svg>